<svg width="29" height="29" viewBox="0 0 29 29" fill="none" xmlns="http://www.w3.org/2000/svg">
<path d="M25.8134 20.096V23.496C25.8146 23.8116 25.75 24.124 25.6235 24.4132C25.4971 24.7024 25.3116 24.962 25.0791 25.1754C24.8465 25.3888 24.5719 25.5512 24.2729 25.6524C23.9739 25.7535 23.6571 25.791 23.3427 25.7626C19.8552 25.3837 16.5053 24.192 13.562 22.2833C10.8237 20.5433 8.50208 18.2216 6.76203 15.4833C4.84667 12.5267 3.65471 9.16043 3.2827 5.6573C3.25438 5.3439 3.29162 5.02803 3.39206 4.72981C3.49251 4.43159 3.65394 4.15755 3.8661 3.92514C4.07825 3.69273 4.33648 3.50704 4.62433 3.37989C4.91218 3.25275 5.22335 3.18693 5.53803 3.18663H8.93803C9.48805 3.18122 10.0213 3.37599 10.4383 3.73464C10.8553 4.09328 11.1277 4.59134 11.2047 5.13597C11.3482 6.22404 11.6143 7.29239 11.998 8.32063C12.1505 8.72628 12.1835 9.16714 12.0931 9.59096C12.0027 10.0148 11.7927 10.4038 11.488 10.712L10.0487 12.1513C11.6621 14.9887 14.0113 17.3379 16.8487 18.9513L18.288 17.512C18.5962 17.2073 18.9852 16.9973 19.409 16.9069C19.8329 16.8165 20.2737 16.8495 20.6794 17.002C21.7076 17.3857 22.776 17.6518 23.864 17.7953C24.4146 17.873 24.9174 18.1503 25.2768 18.5745C25.6362 18.9987 25.8272 19.5402 25.8134 20.096Z" stroke="#1E1E1E" stroke-width="4" stroke-linecap="round" stroke-linejoin="round"/>
</svg>

