<svg width="439" height="314" viewBox="0 0 439 314" fill="none" xmlns="http://www.w3.org/2000/svg">
<g clip-path="url(#clip0_136_818)">
<path d="M376.809 273.609H368.669V311.365H376.809V273.609Z" fill="#D6D6E3"/>
<path d="M322.157 229.585L315.18 236.107L312.854 245.891L402.39 289.915L405.879 271.979L322.157 229.585Z" fill="#D6D6E3"/>
<path d="M347.157 34.7383L315.18 236.107L405.879 271.979L432.042 10.2805L347.157 34.7383Z" fill="#F2F2F2"/>
<path d="M427.452 16.4531L344.87 39.3081C342.869 39.8619 341.081 37.4669 341.384 34.6387L341.769 31.0506C341.952 29.3459 342.87 27.9794 344.073 27.6221L427.589 2.80846C429.817 2.14633 431.716 5.12819 430.996 8.15859L429.677 13.7053C429.342 15.1159 428.492 16.1652 427.452 16.4531Z" fill="#D6D6E3"/>
<path d="M344.025 102.177L344.024 103.572L386.386 103.643L386.387 102.249L344.025 102.177Z" fill="#DB46E8"/>
<path d="M402.651 70.101L366.662 75.3505L366.765 76.7382L402.754 71.4888L402.651 70.101Z" fill="#DB46E8"/>
<path d="M254.7 136.145L242.023 196.907C240.34 204.976 244.341 213.187 250.314 213.921L264.147 215.618L254.7 136.145Z" fill="#DB46E8"/>
<path d="M354.467 108.823V102.541C354.467 102.541 384.682 99.809 387.949 101.288C387.949 101.288 389.289 104.47 382.495 104.978C382.495 104.978 361.354 109.441 354.467 108.823Z" fill="#090814"/>
<path d="M369.758 124.935L352.802 164.258L344.818 150.074L360.421 115.819C359.867 111.834 360.538 107.208 362.522 103.213C365.993 96.2236 372.15 93.8226 376.276 97.8503C380.401 101.878 380.932 110.809 377.461 117.799C375.477 121.794 372.616 124.281 369.758 124.935Z" fill="#FFB6B6"/>
<path d="M264.045 220.26L262.009 229.971L262.078 239.817C262.078 239.817 248.685 262.405 253.619 311.26L316.372 310.157L308.897 231.542L264.045 220.26Z" fill="#090814"/>
<path d="M271.109 85.692C271.109 71.9105 279.076 60.7384 288.904 60.7384C298.733 60.7384 306.7 71.9105 306.7 85.692C306.7 96.8688 301.459 106.328 294.236 109.505L291.583 112.503L296.346 135.88L290.796 141.386L273.258 120.892C273.258 120.892 277.047 114.125 279.078 106.495C274.276 102.026 271.109 94.3794 271.109 85.692Z" fill="#FFB6B6"/>
<path d="M356.892 123.687C350.61 123.553 338.995 151.825 338.995 151.825L329.454 147.094L309.832 137.353L294.794 128.674L294.86 129.312C294.801 129.112 294.737 128.91 294.666 128.706C293.085 124.138 288.492 118.764 275.454 119.829L269.315 126.624L268.48 127.554C268.48 127.554 264.606 127.084 260.746 129.244C257.954 130.818 255.162 133.755 253.841 139.244C253.156 142.075 253.156 147.929 253.567 155.367C255.052 182.296 261.974 239.544 261.974 239.544L305.671 231.433L308.895 231.538C308.895 231.538 309.278 225.368 309.62 217.287C309.832 212.546 310.024 207.162 310.133 201.979C310.209 198.179 310.229 194.494 310.181 191.25C310.175 191.048 310.175 190.847 310.168 190.645C310.038 184.724 309.613 180.434 308.703 179.964C308.703 179.964 311.53 179.858 315.609 179.647C325.464 179.129 342.643 177.968 345.093 176.096C348.556 173.457 366.714 138.035 366.714 138.035C366.714 138.035 363.182 123.831 356.892 123.687Z" fill="#DB46E8"/>
<path d="M307.226 87.5339C305.882 78.3119 305.237 73.5881 300.351 67.0645C299.191 67.2947 300.657 75.7271 294.264 87.4733C284.971 104.549 285.898 88.8926 283.15 94.1526C282.553 95.2945 282.424 99.4144 282.62 100.832C283.395 106.432 287.979 100.964 283.15 120.127C282.431 121.618 281.584 121.256 280.503 121.241C280.42 121.239 280.968 121.093 278.916 120.499C277.936 120.215 276.565 119.88 274.922 119.492C255.828 114.981 249.087 81.1993 263.844 63.6239C267.202 59.6251 270.497 56.5945 273.358 55.1903C281.976 50.9607 301.609 53.7099 305.378 67.4356C307.177 73.9829 307.777 80.6917 307.226 87.5339Z" fill="#010102"/>
<path d="M267.902 141.761C275.423 141.761 281.519 133.212 281.519 122.667C281.519 112.121 275.423 103.572 267.902 103.572C260.381 103.572 254.284 112.121 254.284 122.667C254.284 133.212 260.381 141.761 267.902 141.761Z" fill="#010102"/>
<path d="M75.6118 312.136H83.7514V270.894H75.6118V312.136Z" fill="#D6D6E3"/>
<path d="M130.264 226.87L137.24 233.392L139.566 243.175L50.03 287.199L46.5416 269.263L130.264 226.87Z" fill="#D6D6E3"/>
<path d="M105.263 32.023L137.24 233.392L46.5416 269.263L20.3785 7.56519L105.263 32.023Z" fill="#F2F2F2"/>
<path d="M24.9685 13.7378L107.551 36.5928C109.552 37.1466 111.339 34.7516 111.036 31.9234L110.651 28.3352C110.468 26.6306 109.55 25.2641 108.347 24.9068L24.8316 0.0931298C22.6031 -0.569 20.7041 2.41286 21.4245 5.44326L22.7431 10.99C23.0784 12.4006 23.9282 13.4498 24.9685 13.7378Z" fill="#D6D6E3"/>
<path d="M88.5621 85.2882C86.2935 85.2882 84.0194 83.9481 82.0242 81.3966C79.6141 78.3153 77.895 73.8203 77.1833 68.7398C75.7036 58.1762 79.0967 48.316 84.7468 46.7594C87.5125 45.9981 90.3854 47.3041 92.8365 50.4392C95.2467 53.5205 96.9658 58.0155 97.6774 63.0961C99.1571 73.6596 95.7641 83.5198 90.1139 85.0765C89.5992 85.2181 89.0808 85.2882 88.5621 85.2882ZM86.2926 47.9436C85.8392 47.9436 85.3871 48.0042 84.9387 48.1281C79.8263 49.5363 76.7853 58.6617 78.1594 68.4715C78.8301 73.2599 80.4406 77.4845 82.6944 80.3663C84.9071 83.1957 87.4726 84.3853 89.9221 83.7077C95.0345 82.2995 98.0754 73.1741 96.7014 63.3643C96.0307 58.5759 94.4202 54.3513 92.1664 51.4695C90.3589 49.1584 88.3149 47.9436 86.2926 47.9436Z" fill="#DB46E8"/>
<path d="M87.5254 64.9496L87.3353 66.3184L97.9915 69.2294L98.1816 67.8607L87.5254 64.9496Z" fill="#DB46E8"/>
<path d="M130.196 74.5179V68.2364C130.196 68.2364 99.981 65.504 96.7137 66.9826C96.7137 66.9826 95.3741 70.1651 102.168 70.673C102.168 70.673 123.309 75.1355 130.196 74.5179Z" fill="#090814"/>
<path d="M124.28 76.2151L143.48 116.812L130.169 121.12L113.82 84.6356C110.845 83.5759 107.987 80.5789 106.155 76.1038C102.949 68.2736 104.096 58.91 108.718 55.1895C113.339 51.4691 119.684 54.8007 122.89 62.631C124.723 67.1061 125.127 72.0781 124.28 76.2151Z" fill="#FFB6B6"/>
<path d="M219.663 82.2623C219.663 64.4482 209.364 50.007 196.66 50.007C183.956 50.007 173.657 64.4482 173.657 82.2623C173.657 96.7095 180.431 108.937 189.768 113.043L193.198 116.918L187.041 147.136L194.215 154.253L216.885 127.763C216.885 127.763 211.987 119.016 209.361 109.153C215.568 103.376 219.663 93.4916 219.663 82.2623Z" fill="#FFB6B6"/>
<path d="M154.654 251.735L181.713 221.186L185.999 239.374L161.597 265.563C161.119 269.815 159.254 274.081 156.245 277.052C150.98 282.25 144.225 281.511 141.157 275.401C138.089 269.291 139.871 260.125 145.136 254.927C148.145 251.956 151.638 250.933 154.654 251.735Z" fill="#FFB6B6"/>
<path d="M224.453 206.031L224.479 206.183L163.301 266.497L154.584 244.212L183.962 202.317L224.453 206.031Z" fill="#DB46E8"/>
<path d="M226.308 253.622L175.945 270.225L176.949 310.668H232.241L226.308 253.622Z" fill="#090814"/>
<path d="M211.69 115.975C211.69 115.975 202.462 118.324 192.556 126.645C182.649 134.965 174.994 172.049 174.994 172.049C174.994 172.049 166.845 259.78 175.817 269.975L226.308 253.622C226.308 253.622 232.884 246.419 235.618 221.414C238.245 197.395 227.939 114.129 211.69 115.975Z" fill="#DB46E8"/>
<path d="M204.114 135.1L167.585 131.262L128.894 87.5897C128.894 87.5897 112.804 97.7822 114.35 103.173C115.896 108.564 133.833 153.772 133.833 153.772C133.833 153.772 186.992 181.309 193.379 182.438C199.765 183.567 204.114 135.1 204.114 135.1Z" fill="#DB46E8"/>
<path d="M205.453 106.059L212.546 106.974C212.796 108.973 222.119 91.9112 222.36 81.337C222.416 78.8567 223.868 49.993 204.114 43.2774C184.361 36.5618 168.727 57.1603 172.479 60.0616C176.23 62.9628 186.523 64.9355 186.523 64.9355C186.523 64.9355 178.825 82.5547 188.44 88.3593C188.44 88.3593 188.834 97.0392 191.732 97.4016C194.63 97.764 202.285 91.7172 203.806 98.9407L205.328 106.164" fill="#090814"/>
<path d="M104.409 135.466L63.1779 140.652L63.2668 142.041L104.498 136.855L104.409 135.466Z" fill="#DB46E8"/>
<path d="M437.905 314H1.07995C0.436375 313.931 -0.0391346 313.146 0.00254216 312.244C-0.0391346 311.351 0.436375 310.567 1.07995 310.498H437.905C438.472 310.595 438.919 311.224 438.989 312.018C439.08 312.989 438.598 313.872 437.905 314Z" fill="#CCCCCC"/>
</g>
<defs>
<clipPath id="clip0_136_818">
<rect width="439" height="314" fill="white"/>
</clipPath>
</defs>
</svg>
