<svg width="439" height="431" viewBox="0 0 439 431" fill="none" xmlns="http://www.w3.org/2000/svg">
<g clip-path="url(#clip0_136_708)">
<path d="M246.682 197.497C362.708 197.497 336.793 147.129 336.793 254.564C336.793 361.999 326.548 330.766 210.521 330.766C94.4942 330.766 0 279.352 0 171.917C0 64.4818 130.657 197.497 246.682 197.497Z" fill="#E6E6E6"/>
<path d="M142.537 159.235C147.912 155.123 154.56 154.357 157.385 157.524C160.211 160.692 158.141 166.592 152.767 170.706C150.643 172.376 148.119 173.551 145.404 174.132L122.394 191.29L113.929 181.12L137.512 165.284C138.641 162.924 140.364 160.849 142.537 159.233V159.235Z" fill="#ED9DA0"/>
<path d="M25.7599 145.305L20.8154 169.335L45.4613 175.769L42.3991 150.114L25.7599 145.305Z" fill="#ED9DA0"/>
<path d="M9.54296 197.946C9.53133 197.187 9.53889 190.567 14.8307 186.385C20.9096 181.58 29.4869 183.525 32.4955 184.207C39.4452 185.783 40.0153 188.544 46.5415 191.38C58.7516 196.686 43.4526 193.97 50.7182 192.268C53.2329 191.68 89.413 189.356 98.4184 184.223C115.934 174.241 127.868 168.188 127.868 168.188L135.67 182.636C135.67 182.636 124.389 197.161 108.511 207.922C92.2232 218.96 84.0793 224.479 71.7051 226.613C70.6394 226.796 44.4287 230.94 23.3179 216.336C18.5025 213.005 9.67966 206.901 9.54238 197.948L9.54296 197.946Z" fill="#DB46E8"/>
<path d="M33.7445 161.201C48.7545 161.201 60.9225 149.934 60.9225 136.035C60.9225 122.137 48.7545 110.87 33.7445 110.87C18.7344 110.87 6.56636 122.137 6.56636 136.035C6.56636 149.934 18.7344 161.201 33.7445 161.201Z" fill="#ED9DA0"/>
<path d="M246.593 305.11L218.604 278.58L204.155 292.535L225.008 317.973L245.693 320.163L246.593 305.11Z" fill="#ED9DA0"/>
<path d="M86.7708 255.36C88.4078 255.486 93.6106 256.451 98.583 253.918C100.921 252.68 102.888 250.921 104.305 248.8C111.598 238.658 139.589 222.843 164.711 221.868C170.4 221.648 174.144 222.258 177.548 223.901C182.376 226.231 184.301 229.568 190.425 237.385C193.775 241.66 197.482 245.689 200.872 249.935C220.721 274.807 228.246 276.759 227.477 284.734C226.624 293.581 216.319 301.975 209.47 301.006C206.665 300.609 205.579 298.803 201.832 295.147C190.845 284.428 186.3 286.408 178.476 278.197C169.343 268.61 170.538 260.664 165.773 260.356C161.352 260.072 159.477 266.852 150.043 275.86C145.726 279.981 142.655 281.872 133.29 287.888C96.821 311.315 96.2387 312.961 88.8789 314.829C85.6586 315.647 62.8044 321.449 54.6633 312.216C41.9239 297.767 72.021 254.221 86.7737 255.356L86.7708 255.36Z" fill="#2F2E41"/>
<path d="M238.036 311.103C240.095 310.247 242.502 309.246 243.277 306.945C243.538 306.136 243.597 305.283 243.448 304.45C243.298 303.617 242.945 302.827 242.416 302.141C241.166 300.61 239.316 300.408 239.391 300.137C239.507 299.724 243.879 299.886 248.681 301.457C249.587 301.754 253.691 303.142 258.913 306.917C263.097 309.942 262.533 310.548 265.157 312.292C273.21 317.645 280.763 313.426 285.12 318.446C286.802 320.385 287.519 323.132 286.811 325.358C285.39 329.824 278.478 331.361 274.701 332.155C265.604 334.066 258.718 332.506 251.528 331.384C227.076 327.569 213.338 331.043 211.499 325.798C211.15 324.805 211.716 324.89 213.602 317.605C215.463 310.415 215.402 308.44 216.986 307.864C219.371 306.997 220.973 310.94 226.983 312.289C232.308 313.485 236.703 311.658 238.035 311.104L238.036 311.103Z" fill="#2F2E41"/>
<path d="M196.832 391.897L189.761 355.392L169.343 359.427L171.172 391.317L186.959 403.885L196.832 391.897Z" fill="#ED9DA0"/>
<path d="M94.7583 267.631C96.0381 268.586 99.7564 272.09 105.407 272.579C108.092 272.771 110.787 272.338 113.245 271.321C125.43 266.721 158.183 268.188 179.56 280.446C184.401 283.221 187.129 285.674 188.949 288.803C191.53 293.239 191.102 297.002 191.428 306.655C191.607 311.934 192.231 317.196 192.461 322.474C193.799 353.375 198.844 358.904 193.372 365.102C187.3 371.979 173.684 373.566 168.604 369.203C166.524 367.416 166.721 365.357 165.836 360.384C163.245 345.801 158.283 345.076 156.789 334.215C155.044 321.534 160.855 315.578 157.098 312.848C153.614 310.316 147.949 314.948 134.68 317.497C128.609 318.663 124.918 318.628 113.521 318.735C69.1369 319.158 67.6582 320.217 60.4357 317.937C57.2752 316.939 34.8462 309.857 33.709 297.983C31.9289 279.403 83.2416 259.021 94.7595 267.63L94.7583 267.631Z" fill="#2F2E41"/>
<path d="M186.116 392.409C188.338 392.771 190.937 393.194 192.973 391.693C193.68 391.16 194.246 390.484 194.628 389.718C195.009 388.951 195.196 388.114 195.174 387.27C195.068 385.354 193.662 384.225 193.886 384.038C194.231 383.756 197.752 386.164 200.772 389.963C201.342 390.68 203.896 393.963 205.928 399.802C207.557 404.479 206.722 404.688 207.835 407.495C211.252 416.113 220.06 416.548 220.622 422.967C220.838 425.445 219.764 428.093 217.83 429.566C213.945 432.522 207.294 430.201 203.687 428.893C195 425.744 190.25 420.873 184.98 416.206C167.063 400.335 153.586 396.067 155.245 390.77C155.559 389.768 155.976 390.132 161.954 385.084C167.854 380.101 169.001 378.436 170.662 378.782C173.163 379.305 172.096 383.4 176.25 387.641C179.932 391.4 184.676 392.173 186.115 392.407L186.116 392.409Z" fill="#2F2E41"/>
<path d="M37.4494 140.846C38.5075 137.341 37.1783 136.064 38.5331 134.49C38.5331 134.49 39.0782 133.857 43.9512 132.148C42.5132 124.423 43.5899 123.117 43.5899 123.117C44.8307 121.612 47.3158 121.248 49.008 121.447C52.5866 121.864 53.2201 124.859 55.5097 124.792C58.6731 124.699 62.4664 118.836 61.289 113.755C60.3286 109.607 56.1868 106.531 55.1485 107.065C54.1189 107.595 50.4134 105.259 49.008 105.727C48.0481 106.047 43.5306 105.62 42.5062 106.062C41.3876 106.542 38.1841 109.534 37.8775 109.157C35.749 106.537 35.7944 105.623 34.5618 105.058C32.3734 104.058 29.9948 105.907 25.8943 107.734C17.4542 111.493 14.9831 109.251 11.0845 112.417C9.11542 114.016 8.05961 117.072 6.0277 123.119C3.18662 131.576 1.76609 135.805 3.13776 139.843C4.53735 143.96 6.59777 143.064 9.63954 148.873C13.0251 155.34 15.1768 158.484 18.3763 159.965C20.8491 161.109 21.5041 160.996 23.0043 158.907C25.5732 155.332 18.9324 150.495 21.201 144.86C22.5913 141.4 26.8791 138.778 29.509 139.508C32.4821 140.334 32.7015 145.272 34.5658 145.194C36.1626 145.129 37.2714 141.457 37.4558 140.846L37.4494 140.846Z" fill="#2F2E41"/>
<path d="M118.923 375.056L79.8852 362.267C78.839 361.923 77.9829 361.209 77.5048 360.282C77.0267 359.354 76.9659 358.289 77.3355 357.32L95.6245 309.457C95.9954 308.489 96.7664 307.696 97.7681 307.253C98.7698 306.811 99.9204 306.754 100.967 307.097L140.004 319.887C141.05 320.23 141.907 320.944 142.385 321.871C142.863 322.799 142.924 323.864 142.554 324.833C142.337 342.817 135.718 358.591 124.265 372.696C123.894 373.665 123.123 374.457 122.121 374.9C121.12 375.343 119.969 375.399 118.923 375.056Z" fill="#E6E6E6"/>
<path d="M104.508 367.107L83.725 360.298C82.7458 359.976 81.9445 359.307 81.4968 358.439C81.0492 357.571 80.9917 356.573 81.3371 355.666L97.6122 313.074C97.9605 312.168 98.6827 311.427 99.6205 311.013C100.558 310.599 101.635 310.546 102.615 310.866L136.166 321.854C137.145 322.176 137.947 322.845 138.394 323.713C138.842 324.582 138.899 325.579 138.554 326.487C136.634 339.306 133.684 350.808 126.796 357.257C125.247 361.297 122.03 364.603 117.852 366.45C113.673 368.297 108.874 368.533 104.508 367.107Z" fill="white"/>
<path d="M96.155 334.048C96.3038 333.663 96.6115 333.349 97.0104 333.174C97.4094 332.999 97.867 332.977 98.2829 333.115L124.417 341.752C124.833 341.89 125.173 342.174 125.362 342.544C125.551 342.913 125.574 343.337 125.425 343.722C125.277 344.107 124.969 344.422 124.57 344.597C124.171 344.772 123.713 344.793 123.298 344.656L97.1608 336.018C96.7457 335.879 96.4068 335.595 96.2183 335.225C96.0298 334.856 96.007 334.433 96.155 334.048Z" fill="#DB46E8"/>
<path d="M119.608 332.821C119.757 332.436 120.065 332.122 120.464 331.947C120.863 331.772 121.32 331.751 121.736 331.887L127.486 333.788C127.902 333.925 128.242 334.21 128.431 334.579C128.62 334.949 128.643 335.373 128.494 335.758C128.346 336.143 128.038 336.458 127.639 336.633C127.24 336.808 126.783 336.829 126.367 336.692L120.617 334.791C120.201 334.653 119.862 334.369 119.673 333.999C119.484 333.63 119.461 333.206 119.608 332.821Z" fill="#DB46E8"/>
<path d="M91.2332 346.814C91.382 346.429 91.6896 346.114 92.0886 345.939C92.4875 345.764 92.9451 345.743 93.361 345.88L119.495 354.517C119.911 354.655 120.251 354.94 120.44 355.309C120.629 355.678 120.652 356.102 120.503 356.487C120.355 356.872 120.047 357.187 119.648 357.362C119.249 357.537 118.792 357.559 118.376 357.421L92.2418 348.783C91.8263 348.646 91.4867 348.361 91.2976 347.992C91.1085 347.622 91.0853 347.199 91.2332 346.814Z" fill="#DB46E8"/>
<path d="M93.6938 340.43C93.8426 340.045 94.1503 339.731 94.5492 339.556C94.9482 339.381 95.4058 339.36 95.8217 339.497L121.956 348.134C122.371 348.272 122.711 348.557 122.9 348.926C123.09 349.296 123.112 349.72 122.964 350.105C122.816 350.49 122.508 350.804 122.109 350.979C121.71 351.155 121.252 351.176 120.836 351.038L94.7024 342.401C94.2868 342.263 93.9473 341.978 93.7582 341.609C93.5691 341.239 93.5459 340.815 93.6938 340.43Z" fill="#DB46E8"/>
<path d="M16.8609 164.927C22.4226 159.153 45.0738 165.13 47.2023 174.292C48.0749 178.062 44.8481 179.652 45.7574 183.991C47.0871 190.338 54.6168 189.905 60.2059 196.366C68.1404 205.539 59.9662 214.506 68.8734 229.813C70.7767 233.084 72.3817 235.841 75.7375 238.51C83.4359 244.632 91.6729 265.163 89.4659 269.281C85.7901 276.132 89.9522 281.162 90.1884 289.349C90.4839 299.591 84.604 313.789 72.8505 318.447C59.6457 323.681 43.715 315.013 36.0073 306.406C31.4077 301.271 30.0739 296.534 28.0606 290.687C19.0679 264.554 13.9872 266.918 7.11025 246.203C-0.751567 222.521 -2.29717 194.777 7.11025 185.999C8.35686 184.835 11.7884 182.145 13.9744 177.302C16.9144 170.785 14.3747 167.512 16.8644 164.927H16.8609Z" fill="#DB46E8"/>
<path d="M99.0391 299.343C103.351 304.416 104.02 310.589 100.532 313.129C97.045 315.67 90.7241 313.614 86.4113 308.541C84.6591 306.536 83.4506 304.172 82.8868 301.647L64.9119 279.939L74.2007 273.379L92.6252 294.548C95.1457 295.649 97.3448 297.292 99.0385 299.342L99.0391 299.343Z" fill="#ED9DA0"/>
<path d="M33.2024 186.933C34.0022 186.768 41.0014 185.425 46.5038 189.367C52.8246 193.897 52.5186 202.069 52.411 204.934C52.1632 211.555 49.3605 212.637 47.6939 219.13C44.5754 231.281 50.5147 242.573 53.7961 248.812C56.9283 254.637 60.9902 259.992 65.845 264.696C79.9725 278.539 92.5781 285.82 92.5781 285.82L79.0371 296.967C79.0371 296.967 57.4667 290.88 42.8506 278.682C27.8576 266.171 4.80152 221.903 0.0221834 211.12C-0.389668 210.192 5.44082 225.287 16.5736 203.173C19.1128 198.128 23.7653 188.885 33.2035 186.933H33.2024Z" fill="#DB46E8"/>
<path d="M218.591 181.951C200.533 181.951 182.88 176.992 167.865 167.702C152.849 158.412 141.147 145.208 134.236 129.76C127.325 114.311 125.517 97.3119 129.04 80.9118C132.563 64.5116 141.259 49.4472 154.028 37.6233C166.798 25.7995 183.067 17.7473 200.778 14.4851C218.49 11.223 236.848 12.8972 253.532 19.2962C270.216 25.6953 284.476 36.5316 294.509 50.435C304.541 64.3384 309.896 80.6843 309.896 97.4057C309.896 108.508 307.535 119.502 302.946 129.76C298.358 140.017 291.632 149.337 283.154 157.188C274.675 165.039 264.61 171.266 253.532 175.515C242.454 179.764 230.581 181.951 218.591 181.951ZM218.591 14.1927C200.817 14.1927 183.442 19.0731 168.663 28.2167C153.885 37.3604 142.366 50.3566 135.564 65.5619C128.763 80.7673 126.983 97.4988 130.451 113.641C133.918 129.782 142.477 144.61 155.046 156.247C167.614 167.885 183.627 175.81 201.059 179.021C218.492 182.232 236.561 180.584 252.982 174.285C269.403 167.987 283.439 157.321 293.313 143.637C303.188 129.952 308.458 113.864 308.458 97.4057C308.458 75.3361 298.99 54.1704 282.137 38.5648C265.283 22.9593 242.425 14.1927 218.591 14.1927Z" fill="#090814"/>
<path d="M310.847 86.1799H369.393C369.584 86.1799 369.767 86.1098 369.902 85.9849C370.036 85.8601 370.112 85.6907 370.112 85.5142C370.112 85.3376 370.036 85.1682 369.902 85.0434C369.767 84.9185 369.584 84.8484 369.393 84.8484H310.847C310.657 84.8484 310.474 84.9185 310.339 85.0434C310.204 85.1682 310.128 85.3376 310.128 85.5142C310.128 85.6907 310.204 85.8601 310.339 85.9849C310.474 86.1098 310.657 86.1799 310.847 86.1799Z" fill="#3F3D56"/>
<path d="M390.11 139.122C378.239 124.502 371.378 108.154 371.154 89.513C370.772 88.5086 370.835 87.4048 371.331 86.4437C371.826 85.4827 372.713 84.7427 373.797 84.3862L414.257 71.1303C415.342 70.7762 416.534 70.835 417.572 71.2937C418.61 71.7525 419.409 72.5737 419.794 73.5773L438.749 123.186C439.132 124.191 439.068 125.295 438.573 126.256C438.077 127.217 437.19 127.957 436.107 128.313L395.646 141.569C394.562 141.924 393.369 141.865 392.331 141.406C391.293 140.947 390.494 140.126 390.11 139.122V139.122Z" fill="#E6E6E6"/>
<path d="M387.49 123.122C380.35 116.438 377.294 104.516 375.303 91.2296C374.945 90.289 375.005 89.2551 375.469 88.355C375.933 87.4548 376.763 86.7619 377.778 86.4282L412.55 75.0359C413.566 74.7043 414.683 74.7593 415.655 75.189C416.627 75.6187 417.375 76.3879 417.736 77.3279L434.605 121.472C434.963 122.412 434.904 123.446 434.44 124.346C433.976 125.246 433.145 125.939 432.13 126.273L410.589 133.329C406.064 134.807 401.091 134.562 396.76 132.648C392.43 130.734 389.096 127.308 387.491 123.121L387.49 123.122Z" fill="white"/>
<path d="M418.201 95.3438L391.115 104.297C390.902 104.367 390.676 104.398 390.449 104.388C390.223 104.377 390.001 104.326 389.796 104.236C389.591 104.146 389.408 104.02 389.256 103.864C389.103 103.708 388.986 103.527 388.91 103.329C388.834 103.131 388.8 102.922 388.811 102.712C388.823 102.503 388.878 102.297 388.975 102.107C389.073 101.918 389.209 101.748 389.377 101.607C389.545 101.466 389.741 101.357 389.955 101.287L417.041 92.3339C417.472 92.1915 417.947 92.2134 418.36 92.395C418.774 92.5765 419.092 92.9027 419.246 93.3018C419.4 93.701 419.376 94.1404 419.18 94.5233C418.984 94.9063 418.633 95.2014 418.201 95.3438Z" fill="#DB46E8"/>
<path d="M393.892 94.0742L387.933 96.044C387.72 96.1146 387.494 96.1455 387.267 96.135C387.041 96.1245 386.819 96.0729 386.614 95.983C386.409 95.8931 386.226 95.7667 386.074 95.6111C385.922 95.4555 385.804 95.2737 385.728 95.0761C385.652 94.8785 385.619 94.6689 385.63 94.4593C385.641 94.2497 385.697 94.0443 385.794 93.8546C385.891 93.665 386.028 93.495 386.196 93.3542C386.364 93.2134 386.56 93.1046 386.773 93.0341L392.732 91.0648C392.946 90.9943 393.172 90.9633 393.399 90.9738C393.625 90.9842 393.847 91.0358 394.052 91.1257C394.256 91.2156 394.44 91.3419 394.592 91.4975C394.744 91.6531 394.862 91.8349 394.938 92.0325C395.014 92.2301 395.048 92.4397 395.036 92.6493C395.025 92.8589 394.969 93.0644 394.872 93.254C394.775 93.4437 394.639 93.6138 394.471 93.7546C394.303 93.8954 394.106 94.0042 393.893 94.0748L393.892 94.0742Z" fill="#DB46E8"/>
<path d="M423.302 108.576L396.215 117.528C396.002 117.599 395.775 117.63 395.549 117.619C395.323 117.609 395.101 117.557 394.896 117.467C394.691 117.377 394.508 117.251 394.356 117.095C394.204 116.94 394.086 116.758 394.01 116.56C393.934 116.363 393.9 116.153 393.912 115.944C393.923 115.734 393.979 115.528 394.076 115.339C394.173 115.149 394.309 114.979 394.477 114.838C394.645 114.698 394.842 114.589 395.055 114.518L422.141 105.566C422.572 105.423 423.047 105.445 423.461 105.626C423.874 105.808 424.193 106.134 424.347 106.533C424.501 106.932 424.477 107.372 424.281 107.755C424.085 108.138 423.733 108.433 423.302 108.576Z" fill="#DB46E8"/>
<path d="M420.752 101.96L393.664 110.913C393.235 111.048 392.765 111.022 392.357 110.84C391.948 110.657 391.633 110.333 391.481 109.938C391.328 109.542 391.35 109.107 391.542 108.726C391.733 108.345 392.079 108.049 392.504 107.903L419.591 98.95C420.022 98.8076 420.496 98.8295 420.91 99.0111C421.323 99.1926 421.642 99.5188 421.796 99.9179C421.95 100.317 421.926 100.756 421.73 101.139C421.534 101.522 421.182 101.817 420.751 101.96H420.752Z" fill="#DB46E8"/>
<path d="M373.456 94.8348C377.427 94.8348 380.646 91.8543 380.646 88.1777C380.646 84.5011 377.427 81.5206 373.456 81.5206C369.486 81.5206 366.267 84.5011 366.267 88.1777C366.267 91.8543 369.486 94.8348 373.456 94.8348Z" fill="#DB46E8"/>
<path d="M180.388 22.6968H121.843C121.652 22.6968 121.469 22.6266 121.334 22.5018C121.2 22.3769 121.124 22.2076 121.124 22.031C121.124 21.8544 121.2 21.6851 121.334 21.5602C121.469 21.4354 121.652 21.3652 121.843 21.3652H180.388C180.579 21.3652 180.761 21.4354 180.896 21.5602C181.031 21.6851 181.107 21.8544 181.107 22.031C181.107 22.2076 181.031 22.3769 180.896 22.5018C180.761 22.6266 180.579 22.6968 180.388 22.6968Z" fill="#3F3D56"/>
<path d="M46.1331 46.3108C51.2179 28.6364 60.8649 13.542 76.5566 1.86539C77.1734 0.966354 78.1501 0.330601 79.2725 0.0976347C80.3949 -0.135331 81.5713 0.0535162 82.5435 0.622739L118.793 21.8991C119.764 22.4702 120.451 23.3746 120.703 24.4139C120.954 25.4532 120.75 26.5425 120.135 27.4428L89.712 71.8882C89.0952 72.7872 88.1184 73.4229 86.996 73.6559C85.8736 73.8889 84.6972 73.7 83.725 73.1308L47.4751 51.8545C46.5043 51.2833 45.8179 50.3788 45.5663 49.3396C45.3147 48.3003 45.5185 47.2111 46.1331 46.3108Z" fill="#E6E6E6"/>
<path d="M58.103 34.5183C59.3699 25.1912 67.607 15.6023 77.6618 5.94499C78.2395 5.10302 79.1543 4.50764 80.2055 4.28952C81.2567 4.0714 82.3585 4.24834 83.2689 4.78152L114.422 23.0657C115.332 23.6006 115.975 24.4477 116.21 25.4211C116.446 26.3944 116.255 27.4146 115.679 28.2576L88.6067 67.8079C88.0289 68.6497 87.1141 69.245 86.0629 69.4631C85.0118 69.6813 83.9101 69.5044 82.9996 68.9714L63.7002 57.6448C59.6502 55.2621 56.7864 51.4891 55.737 47.1536C54.6875 42.8181 55.5382 38.2742 58.1024 34.5188L58.103 34.5183Z" fill="white"/>
<path d="M95.7699 43.2858L71.4352 29.0931C71.2435 28.9813 71.0774 28.8356 70.9465 28.6643C70.8155 28.4931 70.7223 28.2996 70.6722 28.095C70.622 27.8904 70.6158 27.6786 70.654 27.4718C70.6922 27.2649 70.774 27.0671 70.8948 26.8896C71.0156 26.712 71.1729 26.5582 71.3579 26.437C71.5429 26.3158 71.7518 26.2294 71.9728 26.183C72.1938 26.1365 72.4225 26.1308 72.6458 26.1662C72.8692 26.2016 73.0828 26.2773 73.2746 26.3892L97.6093 40.5834C97.801 40.6953 97.9671 40.841 98.098 41.0122C98.229 41.1835 98.3222 41.377 98.3724 41.5816C98.4225 41.7862 98.4287 41.998 98.3905 42.2048C98.3523 42.4116 98.2705 42.6095 98.1497 42.787C98.0289 42.9646 97.8716 43.1183 97.6866 43.2396C97.5016 43.3608 97.2927 43.4471 97.0717 43.4936C96.8507 43.54 96.622 43.5458 96.3987 43.5104C96.1753 43.475 95.9617 43.3992 95.7699 43.2874V43.2858Z" fill="#DB46E8"/>
<path d="M81.8327 24.799L76.481 21.6749C76.0937 21.4491 75.8192 21.09 75.7179 20.6768C75.6165 20.2635 75.6966 19.8299 75.9406 19.4714C76.1845 19.1128 76.5722 18.8586 77.0185 18.7648C77.4648 18.6709 77.9331 18.7451 78.3203 18.971L83.6721 22.0951C84.0593 22.3209 84.3338 22.68 84.4351 23.0932C84.5365 23.5065 84.4564 23.9401 84.2125 24.2986C83.9686 24.6572 83.5808 24.9114 83.1345 25.0052C82.6882 25.0991 82.2199 25.0249 81.8327 24.799Z" fill="#DB46E8"/>
<path d="M86.6492 54.44L62.3151 40.2457C61.9279 40.0199 61.6534 39.6608 61.552 39.2476C61.4507 38.8343 61.5308 38.4007 61.7747 38.0422C62.0186 37.6836 62.4064 37.4294 62.8527 37.3356C63.299 37.2417 63.7673 37.3159 64.1545 37.5418L88.4892 51.736C88.6809 51.8478 88.847 51.9936 88.9779 52.1648C89.1089 52.3361 89.2021 52.5296 89.2523 52.7342C89.3024 52.9388 89.3086 53.1506 89.2704 53.3574C89.2322 53.5642 89.1504 53.7621 89.0296 53.9396C88.9088 54.1171 88.7515 54.2709 88.5665 54.3922C88.3815 54.5134 88.1726 54.5997 87.9516 54.6462C87.7307 54.6926 87.5019 54.6983 87.2786 54.663C87.0552 54.6276 86.8416 54.5518 86.6498 54.44H86.6492Z" fill="#DB46E8"/>
<path d="M90.6933 48.4966L66.3586 34.3024C65.9714 34.0765 65.6969 33.7175 65.5956 33.3042C65.4942 32.891 65.5743 32.4574 65.8182 32.0988C66.0621 31.7402 66.4499 31.4861 66.8962 31.3922C67.3425 31.2984 67.8108 31.3725 68.198 31.5984L92.5327 45.7927C92.9199 46.0185 93.1944 46.3776 93.2958 46.7908C93.3971 47.2041 93.317 47.6377 93.0731 47.9962C92.8292 48.3548 92.4414 48.609 91.9951 48.7028C91.5488 48.7967 91.0806 48.7225 90.6933 48.4966Z" fill="#DB46E8"/>
<path d="M117.779 31.3522C121.75 31.3522 124.969 28.3717 124.969 24.6951C124.969 21.0186 121.75 18.0381 117.779 18.0381C113.809 18.0381 110.59 21.0186 110.59 24.6951C110.59 28.3717 113.809 31.3522 117.779 31.3522Z" fill="#DB46E8"/>
<path d="M245.362 92.071C245.362 93.8629 245.189 95.6511 244.844 97.4143C244.221 99.6681 243.277 101.835 242.037 103.859C239.663 107.764 237.117 109.222 235.025 113.046C234.665 113.303 234.295 113.535 233.92 113.762C233.168 114.211 233.086 116.411 232.287 116.789C232.282 116.794 232.276 116.794 232.271 116.799C232.025 117.186 231.883 117.623 231.857 118.071V118.081C231.454 120.266 231.105 124.711 230.702 127.339C230.648 127.657 230.598 127.95 230.543 128.207C230.407 128.903 230.266 129.347 230.108 129.402C228.163 130.098 227.334 129.145 225.204 129.402C224.06 129.544 218.219 130.411 217.031 130.411C213.657 130.411 211.833 129.347 209.104 128.207C208.913 128.131 208.722 128.05 208.522 127.97C208.448 127.945 208.387 127.916 208.315 127.89C207.531 127.582 206.79 119.822 206.055 116.886C206.053 116.884 206.051 116.882 206.05 116.879C206.049 116.877 206.049 116.874 206.049 116.871C205.896 116.26 205.745 115.862 205.592 115.781L205.475 115.721C204.99 115.464 204.517 115.182 204.053 114.888C201.246 110.559 195.825 106.44 193.149 99.7068C192.381 97.2232 191.984 94.6542 191.967 92.071C191.967 88.8246 192.657 85.61 193.999 82.6107C195.341 79.6115 197.307 76.8862 199.786 74.5907C202.265 72.2951 205.209 70.4742 208.448 69.2319C211.687 67.9895 215.158 67.3501 218.664 67.3501C222.17 67.3501 225.642 67.9895 228.881 69.2319C232.12 70.4742 235.063 72.2951 237.542 74.5907C240.022 76.8862 241.988 79.6115 243.33 82.6107C244.671 85.61 245.362 88.8246 245.362 92.071Z" fill="#E6E6E6"/>
<path d="M244.845 97.4165C244.222 99.6695 243.278 101.836 242.039 103.859C239.664 107.764 237.119 109.222 235.026 113.046C233.635 115.594 232.448 119.191 231.638 125.257C231.589 125.615 231.692 126.023 231.638 126.377C231.512 127.159 231.665 127.018 231.153 127.723C230.92 127.844 230.776 127.673 230.701 127.34C230.58 126.5 230.569 125.65 230.668 124.808C230.815 122.535 231.213 120.281 231.855 118.083V118.072C231.986 117.633 232.127 117.211 232.269 116.801C234.792 109.687 239.445 106.464 241.554 102.743C252.629 83.2244 232.159 61.4396 209.614 69.0167C208.405 69.4255 208.47 69.6631 208.405 69.6927C206.71 70.3735 205.332 70.6719 203.686 71.7056C193.693 78.0028 190.106 90.4589 194.614 100.721C197.057 106.275 202.166 109.408 205.473 115.72C205.671 116.086 205.861 116.47 206.045 116.87C206.044 116.873 206.045 116.876 206.046 116.878C206.046 116.881 206.048 116.883 206.05 116.885C207.604 120.407 208.441 124.165 208.519 127.969C208.524 128.038 208.53 128.101 208.53 128.166C208.726 128.181 208.917 128.191 209.102 128.206C211.995 128.438 213.872 128.867 214.839 128.403L215.906 128.504C216.26 128.963 222.213 128.403 223.164 128.393H223.409C225.788 128.449 228.169 128.387 230.541 128.206C230.661 128.196 230.785 128.18 230.906 128.165C231.064 128.2 231.203 128.289 231.293 128.414C231.383 128.54 231.418 128.693 231.391 128.841C231.465 129.477 230.328 131.319 229.942 131.525C228.825 132.131 210.629 132.441 208.889 131.304C208.383 130.975 208.011 130.497 207.836 129.948C207.661 129.399 207.692 128.811 207.925 128.281C207.892 128.139 207.222 127.736 207.195 127.605C206.868 125.887 207.253 121.535 205.021 116.627C204.745 116.025 204.42 115.443 204.051 114.886C201.246 110.557 195.825 106.44 193.149 99.702C191.745 96.0855 191.254 92.2196 191.713 88.4002C192.677 78.9158 201.513 69.5823 211.428 67.2263C232.181 62.2923 249.704 79.7184 244.845 97.4165Z" fill="#010001"/>
<path d="M230.205 132.049C231.931 133.571 231.009 134.085 230.205 135.858C229.19 135.646 211.816 136.675 209.397 135.858C209.01 135.713 208.669 135.479 208.406 135.179C208.144 134.878 207.968 134.521 207.895 134.14C207.823 133.759 207.855 133.368 207.991 133.002C208.126 132.637 208.36 132.309 208.669 132.049C215.826 132.79 223.049 132.79 230.205 132.049Z" fill="#010001"/>
<path d="M231.171 136.53C231.851 137.931 230.55 138.789 229.961 139.892L228.752 140.116L209.637 139.891C208.483 139.686 207.754 138.194 207.456 137.203C207.436 137.069 207.46 136.934 207.526 136.814C207.591 136.694 207.694 136.595 207.822 136.53L209.394 136.082C215.712 136.556 222.053 136.705 228.389 136.53C228.811 136.303 229.291 136.183 229.78 136.183C230.269 136.183 230.749 136.303 231.171 136.53Z" fill="#010001"/>
<path d="M215.488 118.301H214.987V110.714L205.748 92.5989L206.201 92.4001L215.488 110.606V118.301Z" fill="#0F0F10"/>
<path d="M218.525 54.0947C219.549 53.4483 219.566 61.0178 219.252 61.264C218.055 62.1953 218.182 54.3107 218.525 54.0947Z" fill="#010001"/>
<path d="M210.298 54.7663C211.103 54.2853 212.959 61.4525 212.839 61.8225C212.154 63.9345 209.919 54.992 210.298 54.7663Z" fill="#010001"/>
<path d="M226.751 54.7663C227.71 54.5336 226.096 61.4993 225.904 61.8225C224.09 64.8804 226.23 54.8934 226.751 54.7663Z" fill="#010001"/>
<path d="M223.297 118.313L222.885 109.882L222.894 109.849L227.798 91.1829L228.285 91.2906L223.39 109.928L223.797 118.293L223.297 118.313Z" fill="#0F0F10"/>
</g>
<defs>
<clipPath id="clip0_136_708">
<rect width="439" height="431" fill="white"/>
</clipPath>
</defs>
</svg>
